<?xml version="1.0" encoding="UTF-8"?>

<!DOCTYPE svg PUBLIC '-//W3C//DTD SVG 1.0//EN' 'http://www.w3.org/TR/2001/REC-SVG-20010904/DTD/svg10.dtd'>
<svg style="fill-opacity:1; color-rendering:auto; color-interpolation:auto; text-rendering:auto; stroke:black; stroke-linecap:square; stroke-miterlimit:10; shape-rendering:auto; stroke-opacity:1; fill:black; stroke-dasharray:none; font-weight:normal; stroke-width:1; font-family:&apos;Dialog&apos;; font-style:normal; stroke-linejoin:miter; font-size:12; stroke-dashoffset:0; image-rendering:auto;" xmlns="http://www.w3.org/2000/svg" width="1040" xmlns:xlink="http://www.w3.org/1999/xlink" height="416">
  <!--Generated by the Batik Graphics2D SVG Generator-->
  <defs id="genericDefs" />
  <g>
    <defs id="defs1">
      <linearGradient x1="60" gradientUnits="userSpaceOnUse" x2="60" y1="0" y2="410" id="linearGradient1" spreadMethod="reflect">
        <stop style="stop-opacity:1; stop-color:rgb(139,193,205);" offset="0%" />
        <stop style="stop-opacity:1; stop-color:rgb(240,247,249);" offset="100%" />
      </linearGradient>
      <linearGradient x1="40" gradientUnits="userSpaceOnUse" x2="40" y1="0" y2="410" id="linearGradient2" spreadMethod="reflect">
        <stop style="stop-opacity:1; stop-color:rgb(139,193,205);" offset="0%" />
        <stop style="stop-opacity:1; stop-color:rgb(240,247,249);" offset="100%" />
      </linearGradient>
      <linearGradient x1="4" gradientUnits="userSpaceOnUse" x2="4" y1="0" y2="284" id="linearGradient3" spreadMethod="reflect">
        <stop style="stop-opacity:1; stop-color:rgb(139,193,205);" offset="0%" />
        <stop style="stop-opacity:1; stop-color:rgb(240,247,249);" offset="100%" />
      </linearGradient>
      <linearGradient x1="40" gradientUnits="userSpaceOnUse" x2="40" y1="0" y2="410" id="linearGradient4" spreadMethod="reflect">
        <stop style="stop-opacity:1; stop-color:rgb(139,193,205);" offset="0%" />
        <stop style="stop-opacity:1; stop-color:rgb(240,247,249);" offset="100%" />
      </linearGradient>
      <linearGradient x1="60" gradientUnits="userSpaceOnUse" x2="60" y1="0" y2="410" id="linearGradient5" spreadMethod="reflect">
        <stop style="stop-opacity:1; stop-color:rgb(139,193,205);" offset="0%" />
        <stop style="stop-opacity:1; stop-color:rgb(240,247,249);" offset="100%" />
      </linearGradient>
      <linearGradient x1="4" gradientUnits="userSpaceOnUse" x2="4" y1="0" y2="12" id="linearGradient6" spreadMethod="reflect">
        <stop style="stop-opacity:1; stop-color:rgb(139,193,205);" offset="0%" />
        <stop style="stop-opacity:1; stop-color:rgb(240,247,249);" offset="100%" />
      </linearGradient>
      <linearGradient x1="40" gradientUnits="userSpaceOnUse" x2="40" y1="0" y2="410" id="linearGradient7" spreadMethod="reflect">
        <stop style="stop-opacity:1; stop-color:rgb(139,193,205);" offset="0%" />
        <stop style="stop-opacity:1; stop-color:rgb(240,247,249);" offset="100%" />
      </linearGradient>
      <linearGradient x1="4" gradientUnits="userSpaceOnUse" x2="4" y1="0" y2="170" id="linearGradient8" spreadMethod="reflect">
        <stop style="stop-opacity:1; stop-color:rgb(139,193,205);" offset="0%" />
        <stop style="stop-opacity:1; stop-color:rgb(240,247,249);" offset="100%" />
      </linearGradient>
      <linearGradient x1="4" gradientUnits="userSpaceOnUse" x2="4" y1="0" y2="60" id="linearGradient9" spreadMethod="reflect">
        <stop style="stop-opacity:1; stop-color:rgb(139,193,205);" offset="0%" />
        <stop style="stop-opacity:1; stop-color:rgb(240,247,249);" offset="100%" />
      </linearGradient>
      <clipPath clipPathUnits="userSpaceOnUse" id="clipPath1">
        <path d="M-3 -3 L127 -3 L127 417 L-3 417 L-3 -3 Z" />
      </clipPath>
      <clipPath clipPathUnits="userSpaceOnUse" id="clipPath2">
        <path d="M-3 -3 L87 -3 L87 417 L-3 417 L-3 -3 Z" />
      </clipPath>
      <clipPath clipPathUnits="userSpaceOnUse" id="clipPath3">
        <path d="M-3 -3 L15 -3 L15 291 L-3 291 L-3 -3 Z" />
      </clipPath>
      <clipPath clipPathUnits="userSpaceOnUse" id="clipPath4">
        <path d="M-3 -3 L15 -3 L15 19 L-3 19 L-3 -3 Z" />
      </clipPath>
      <clipPath clipPathUnits="userSpaceOnUse" id="clipPath5">
        <path d="M-3 -3 L15 -3 L15 177 L-3 177 L-3 -3 Z" />
      </clipPath>
      <clipPath clipPathUnits="userSpaceOnUse" id="clipPath6">
        <path d="M-3 -3 L15 -3 L15 67 L-3 67 L-3 -3 Z" />
      </clipPath>
      <clipPath clipPathUnits="userSpaceOnUse" id="clipPath7">
        <path d="M0 0 L80 0 L80 14 L0 14 L0 0 Z" />
      </clipPath>
      <clipPath clipPathUnits="userSpaceOnUse" id="clipPath8">
        <path d="M0 0 L120 0 L120 14 L0 14 L0 0 Z" />
      </clipPath>
      <clipPath clipPathUnits="userSpaceOnUse" id="clipPath9">
        <path d="M0 0 L416 0 L416 104 L0 104 L0 0 Z" />
      </clipPath>
      <clipPath clipPathUnits="userSpaceOnUse" id="clipPath10">
        <path d="M0 0 L646 0 L646 104 L0 104 L0 0 Z" />
      </clipPath>
      <clipPath clipPathUnits="userSpaceOnUse" id="clipPath11">
        <path d="M0 0 L366 0 L366 104 L0 104 L0 0 Z" />
      </clipPath>
      <clipPath clipPathUnits="userSpaceOnUse" id="clipPath12">
        <path d="M0 0 L476 0 L476 104 L0 104 L0 0 Z" />
      </clipPath>
      <clipPath clipPathUnits="userSpaceOnUse" id="clipPath13">
        <path d="M0 0 L706 0 L706 104 L0 104 L0 0 Z" />
      </clipPath>
      <clipPath clipPathUnits="userSpaceOnUse" id="clipPath14">
        <path d="M0 0 L326 0 L326 104 L0 104 L0 0 Z" />
      </clipPath>
      <clipPath clipPathUnits="userSpaceOnUse" id="clipPath15">
        <path d="M0 0 L129 0 L129 14 L0 14 L0 0 Z" />
      </clipPath>
      <clipPath clipPathUnits="userSpaceOnUse" id="clipPath16">
        <path d="M0 0 L153 0 L153 14 L0 14 L0 0 Z" />
      </clipPath>
      <clipPath clipPathUnits="userSpaceOnUse" id="clipPath17">
        <path d="M0 0 L193 0 L193 14 L0 14 L0 0 Z" />
      </clipPath>
      <clipPath clipPathUnits="userSpaceOnUse" id="clipPath18">
        <path d="M0 0 L197 0 L197 14 L0 14 L0 0 Z" />
      </clipPath>
      <clipPath clipPathUnits="userSpaceOnUse" id="clipPath19">
        <path d="M0 0 L139 0 L139 14 L0 14 L0 0 Z" />
      </clipPath>
      <clipPath clipPathUnits="userSpaceOnUse" id="clipPath20">
        <path d="M0 0 L224 0 L224 14 L0 14 L0 0 Z" />
      </clipPath>
      <clipPath clipPathUnits="userSpaceOnUse" id="clipPath21">
        <path d="M0 0 L151 0 L151 14 L0 14 L0 0 Z" />
      </clipPath>
      <clipPath clipPathUnits="userSpaceOnUse" id="clipPath22">
        <path d="M0 0 L267 0 L267 14 L0 14 L0 0 Z" />
      </clipPath>
      <clipPath clipPathUnits="userSpaceOnUse" id="clipPath23">
        <path d="M0 0 L310 0 L310 14 L0 14 L0 0 Z" />
      </clipPath>
      <clipPath clipPathUnits="userSpaceOnUse" id="clipPath24">
        <path d="M0 0 L285 0 L285 14 L0 14 L0 0 Z" />
      </clipPath>
      <clipPath clipPathUnits="userSpaceOnUse" id="clipPath25">
        <path d="M0 0 L148 0 L148 14 L0 14 L0 0 Z" />
      </clipPath>
      <clipPath clipPathUnits="userSpaceOnUse" id="clipPath26">
        <path d="M0 0 L152 0 L152 14 L0 14 L0 0 Z" />
      </clipPath>
    </defs>
    <g style="fill:white; text-rendering:geometricPrecision; stroke:white;">
      <rect x="0" y="0" width="1040" style="stroke:none;" height="416" />
    </g>
    <g transform="translate(6,2)" style="font-size:11; fill:url(#linearGradient1); text-rendering:geometricPrecision; font-family:sans-serif; stroke:url(#linearGradient1);">
      <circle style="clip-path:url(#clipPath1); stroke:none;" r="5" cx="60" cy="5" />
      <rect x="56" y="49" width="8" style="clip-path:url(#clipPath1); stroke:none;" height="360" />
    </g>
    <g transform="translate(6,2)" style="stroke-linecap:butt; font-size:11; text-rendering:geometricPrecision; font-family:sans-serif; stroke-linejoin:round; stroke-miterlimit:0;">
      <circle style="fill:none; clip-path:url(#clipPath1);" r="5" cx="60" cy="5" />
      <rect x="56" y="49" width="8" style="clip-path:url(#clipPath1); fill:none;" height="360" />
      <line x1="60" x2="60" y1="10" style="clip-path:url(#clipPath1); fill:none;" y2="25" />
      <line x1="60" x2="51" y1="25" style="clip-path:url(#clipPath1); fill:none;" y2="36" />
      <line x1="60" x2="69" y1="25" style="clip-path:url(#clipPath1); fill:none;" y2="36" />
      <line x1="51" x2="69" y1="16" style="clip-path:url(#clipPath1); fill:none;" y2="16" />
    </g>
    <g transform="translate(346,2)" style="font-size:11; fill:url(#linearGradient2); text-rendering:geometricPrecision; font-family:sans-serif; stroke:url(#linearGradient2);">
      <rect x="0" y="0" width="79" style="clip-path:url(#clipPath2); stroke:none;" height="35" />
    </g>
    <g transform="translate(346,2)" style="stroke-linecap:butt; font-size:11; text-rendering:geometricPrecision; font-family:sans-serif; stroke-linejoin:round; stroke-miterlimit:0;">
      <rect x="0" y="0" width="79" style="clip-path:url(#clipPath2); fill:none;" height="35" />
      <line x1="39" x2="39" y1="35" style="clip-path:url(#clipPath2); fill:none; stroke-linejoin:bevel; stroke-dasharray:8,3;" y2="410" />
    </g>
    <g transform="translate(382,82)" style="font-size:11; fill:url(#linearGradient3); text-rendering:geometricPrecision; font-family:sans-serif; stroke:url(#linearGradient3);">
      <rect x="0" y="0" width="8" style="clip-path:url(#clipPath3); stroke:none;" height="284" />
    </g>
    <g transform="translate(382,82)" style="stroke-linecap:butt; font-size:11; text-rendering:geometricPrecision; font-family:sans-serif; stroke-linejoin:round; stroke-miterlimit:0;">
      <rect x="0" y="0" width="8" style="clip-path:url(#clipPath3); fill:none;" height="284" />
    </g>
    <g transform="translate(576,2)" style="font-size:11; fill:url(#linearGradient4); text-rendering:geometricPrecision; font-family:sans-serif; stroke:url(#linearGradient4);">
      <rect x="0" y="0" width="79" style="clip-path:url(#clipPath2); stroke:none;" height="35" />
    </g>
    <g transform="translate(576,2)" style="stroke-linecap:butt; font-size:11; text-rendering:geometricPrecision; font-family:sans-serif; stroke-linejoin:round; stroke-miterlimit:0;">
      <rect x="0" y="0" width="79" style="clip-path:url(#clipPath2); fill:none;" height="35" />
      <line x1="39" x2="39" y1="35" style="clip-path:url(#clipPath2); fill:none; stroke-linejoin:bevel; stroke-dasharray:8,3;" y2="410" />
    </g>
    <g transform="translate(826,2)" style="font-size:11; fill:url(#linearGradient5); text-rendering:geometricPrecision; font-family:sans-serif; stroke:url(#linearGradient5);">
      <rect x="0" y="0" width="119" style="clip-path:url(#clipPath1); stroke:none;" height="35" />
    </g>
    <g transform="translate(826,2)" style="stroke-linecap:butt; font-size:11; text-rendering:geometricPrecision; font-family:sans-serif; stroke-linejoin:round; stroke-miterlimit:0;">
      <rect x="0" y="0" width="119" style="clip-path:url(#clipPath1); fill:none;" height="35" />
      <line x1="59" x2="59" y1="35" style="clip-path:url(#clipPath1); fill:none; stroke-linejoin:bevel; stroke-dasharray:8,3;" y2="410" />
    </g>
    <g transform="translate(882,372)" style="font-size:11; fill:url(#linearGradient6); text-rendering:geometricPrecision; font-family:sans-serif; stroke:url(#linearGradient6);">
      <rect x="0" y="0" width="8" style="clip-path:url(#clipPath4); stroke:none;" height="12" />
    </g>
    <g transform="translate(882,372)" style="stroke-linecap:butt; font-size:11; text-rendering:geometricPrecision; font-family:sans-serif; stroke-linejoin:round; stroke-miterlimit:0;">
      <rect x="0" y="0" width="8" style="clip-path:url(#clipPath4); fill:none;" height="12" />
    </g>
    <g transform="translate(956,2)" style="font-size:11; fill:url(#linearGradient7); text-rendering:geometricPrecision; font-family:sans-serif; stroke:url(#linearGradient7);">
      <rect x="0" y="0" width="79" style="clip-path:url(#clipPath2); stroke:none;" height="35" />
    </g>
    <g transform="translate(956,2)" style="stroke-linecap:butt; font-size:11; text-rendering:geometricPrecision; font-family:sans-serif; stroke-linejoin:round; stroke-miterlimit:0;">
      <rect x="0" y="0" width="79" style="clip-path:url(#clipPath2); fill:none;" height="35" />
      <line x1="39" x2="39" y1="35" style="clip-path:url(#clipPath2); fill:none; stroke-linejoin:bevel; stroke-dasharray:8,3;" y2="410" />
    </g>
    <g transform="translate(612,222)" style="font-size:11; fill:url(#linearGradient8); text-rendering:geometricPrecision; font-family:sans-serif; stroke:url(#linearGradient8);">
      <rect x="0" y="0" width="8" style="clip-path:url(#clipPath5); stroke:none;" height="170" />
    </g>
    <g transform="translate(612,222)" style="stroke-linecap:butt; font-size:11; text-rendering:geometricPrecision; font-family:sans-serif; stroke-linejoin:round; stroke-miterlimit:0;">
      <rect x="0" y="0" width="8" style="clip-path:url(#clipPath5); fill:none;" height="170" />
    </g>
    <g transform="translate(992,262)" style="font-size:11; fill:url(#linearGradient9); text-rendering:geometricPrecision; font-family:sans-serif; stroke:url(#linearGradient9);">
      <rect x="0" y="0" width="8" style="clip-path:url(#clipPath6); stroke:none;" height="60" />
    </g>
    <g transform="translate(992,262)" style="stroke-linecap:butt; font-size:11; text-rendering:geometricPrecision; font-family:sans-serif; stroke-linejoin:round; stroke-miterlimit:0;">
      <rect x="0" y="0" width="8" style="clip-path:url(#clipPath6); fill:none;" height="60" />
    </g>
    <g style="text-rendering:geometricPrecision; font-size:11; font-family:sans-serif;" transform="translate(956,2)">
      <text x="10" y="11" style="clip-path:url(#clipPath7); stroke:none;" xml:space="preserve">MediaStore</text>
    </g>
    <g style="text-rendering:geometricPrecision; font-size:11; font-family:sans-serif;" transform="translate(826,2)">
      <text x="13" y="11" style="clip-path:url(#clipPath8); stroke:none;" xml:space="preserve">MemcachedClient</text>
    </g>
    <g style="text-rendering:geometricPrecision; font-size:11; font-family:sans-serif;" transform="translate(576,2)">
      <text x="7" y="11" style="clip-path:url(#clipPath7); stroke:none;" xml:space="preserve">MediaBroker</text>
    </g>
    <g style="text-rendering:geometricPrecision; font-size:11; font-family:sans-serif;" transform="translate(346,2)">
      <text x="12" y="11" style="clip-path:url(#clipPath7); stroke:none;" xml:space="preserve">MediaData</text>
    </g>
    <g transform="translate(20,32)" style="font-size:11; stroke-linecap:butt; text-rendering:geometricPrecision; font-family:sans-serif; stroke-linejoin:round;">
      <line x1="50" x2="362" y1="50" style="clip-path:url(#clipPath9); fill:none;" y2="50" />
      <polygon style="fill:rgb(122,207,245); clip-path:url(#clipPath9); stroke:none;" points=" 362 50 350 44 350 56" />
      <polygon style="fill:none; clip-path:url(#clipPath9);" points=" 362 50 350 44 350 56" />
    </g>
    <g transform="translate(20,62)" style="font-size:11; stroke-linecap:butt; text-rendering:geometricPrecision; font-family:sans-serif; stroke-linejoin:round;">
      <line x1="50" x2="362" y1="50" style="clip-path:url(#clipPath9); fill:none;" y2="50" />
      <polygon style="fill:rgb(122,207,245); clip-path:url(#clipPath9); stroke:none;" points=" 362 50 350 44 350 56" />
      <polygon style="fill:none; clip-path:url(#clipPath9);" points=" 362 50 350 44 350 56" />
    </g>
    <g transform="translate(20,92)" style="font-size:11; stroke-linecap:butt; text-rendering:geometricPrecision; font-family:sans-serif; stroke-linejoin:round;">
      <line x1="50" x2="362" y1="50" style="clip-path:url(#clipPath9); fill:none;" y2="50" />
      <polygon style="fill:rgb(122,207,245); clip-path:url(#clipPath9); stroke:none;" points=" 362 50 350 44 350 56" />
      <polygon style="fill:none; clip-path:url(#clipPath9);" points=" 362 50 350 44 350 56" />
    </g>
    <g transform="translate(20,132)" style="font-size:11; stroke-linecap:butt; text-rendering:geometricPrecision; font-family:sans-serif; stroke-linejoin:round;">
      <line x1="50" x2="362" y1="50" style="clip-path:url(#clipPath9); fill:none;" y2="50" />
      <polygon style="fill:rgb(122,207,245); clip-path:url(#clipPath9); stroke:none;" points=" 362 50 350 44 350 56" />
      <polygon style="fill:none; clip-path:url(#clipPath9);" points=" 362 50 350 44 350 56" />
    </g>
    <g transform="translate(20,172)" style="font-size:11; stroke-linecap:butt; text-rendering:geometricPrecision; font-family:sans-serif; stroke-linejoin:round;">
      <line x1="50" x2="592" y1="50" style="clip-path:url(#clipPath10); fill:none;" y2="50" />
      <polygon style="fill:rgb(122,207,245); clip-path:url(#clipPath10); stroke:none;" points=" 592 50 580 44 580 56" />
      <polygon style="fill:none; clip-path:url(#clipPath10);" points=" 592 50 580 44 580 56" />
    </g>
    <g transform="translate(570,322)" style="font-size:11; stroke-linecap:butt; text-rendering:geometricPrecision; font-family:sans-serif; stroke-linejoin:round;">
      <line x1="50" x2="312" y1="50" style="clip-path:url(#clipPath11); fill:none;" y2="50" />
      <polygon style="fill:rgb(122,207,245); clip-path:url(#clipPath11); stroke:none;" points=" 312 50 300 44 300 56" />
      <polygon style="fill:none; clip-path:url(#clipPath11);" points=" 312 50 300 44 300 56" />
    </g>
    <g transform="translate(570,212)" style="font-size:11; stroke-linecap:butt; text-rendering:geometricPrecision; font-family:sans-serif; stroke-linejoin:round;">
      <line x1="50" x2="422" y1="50" style="clip-path:url(#clipPath12); fill:none;" y2="50" />
      <polygon style="fill:rgb(122,207,245); clip-path:url(#clipPath12); stroke:none;" points=" 422 50 410 44 410 56" />
      <polygon style="fill:none; clip-path:url(#clipPath12);" points=" 422 50 410 44 410 56" />
    </g>
    <g transform="translate(340,232)" style="font-size:11; stroke-linecap:butt; text-rendering:geometricPrecision; font-family:sans-serif; stroke-linejoin:round;">
      <line x1="652" x2="50" y1="50" style="clip-path:url(#clipPath13); fill:none;" y2="50" />
      <polygon style="fill:rgb(122,207,245); clip-path:url(#clipPath13); stroke:none;" points=" 50 50 62 56 62 44" />
      <polygon style="fill:none; clip-path:url(#clipPath13);" points=" 50 50 62 56 62 44" />
    </g>
    <g transform="translate(340,262)" style="font-size:11; stroke-linecap:butt; text-rendering:geometricPrecision; font-family:sans-serif; stroke-linejoin:round;">
      <line x1="652" x2="50" y1="50" style="clip-path:url(#clipPath13); fill:none;" y2="50" />
      <polygon style="fill:rgb(122,207,245); clip-path:url(#clipPath13); stroke:none;" points=" 50 50 62 56 62 44" />
      <polygon style="fill:none; clip-path:url(#clipPath13);" points=" 50 50 62 56 62 44" />
    </g>
    <g transform="translate(340,302)" style="font-size:11; stroke-linecap:butt; text-rendering:geometricPrecision; font-family:sans-serif; stroke-linejoin:round;">
      <line x1="272" x2="50" y1="50" style="clip-path:url(#clipPath14); fill:none;" y2="50" />
      <polygon style="fill:rgb(122,207,245); clip-path:url(#clipPath14); stroke:none;" points=" 50 50 62 56 62 44" />
      <polygon style="fill:none; clip-path:url(#clipPath14);" points=" 50 50 62 56 62 44" />
    </g>
    <g transform="translate(340,202)" style="font-size:11; stroke-linecap:butt; text-rendering:geometricPrecision; font-family:sans-serif; stroke-linejoin:round;">
      <line x1="272" x2="50" y1="50" style="clip-path:url(#clipPath14); fill:none;" y2="50" />
      <polygon style="fill:rgb(122,207,245); clip-path:url(#clipPath14); stroke:none;" points=" 50 50 62 56 62 44" />
      <polygon style="fill:none; clip-path:url(#clipPath14);" points=" 50 50 62 56 62 44" />
    </g>
    <g style="text-rendering:geometricPrecision; font-size:11; font-family:sans-serif;" transform="translate(2,37)">
      <text x="9" y="11" style="clip-path:url(#clipPath15); stroke:none;" xml:space="preserve">AbstractComponent</text>
    </g>
    <g transform="translate(20,332)" style="stroke-linecap:butt; font-size:11; text-rendering:geometricPrecision; stroke-linejoin:round; font-family:sans-serif; stroke-dasharray:8,3; stroke-miterlimit:0;">
      <line x1="592" x2="50" y1="50" style="clip-path:url(#clipPath10); fill:none;" y2="50" />
      <line x1="50" x2="62" y1="50" style="clip-path:url(#clipPath10); fill:none; stroke-dasharray:none; stroke-miterlimit:10;" y2="56" />
      <line x1="50" x2="62" y1="50" style="clip-path:url(#clipPath10); fill:none; stroke-dasharray:none; stroke-miterlimit:10;" y2="44" />
    </g>
    <g style="text-rendering:geometricPrecision; font-size:11; font-family:sans-serif;" transform="translate(156,362)">
      <text x="10" y="11" style="clip-path:url(#clipPath16); stroke:none;" xml:space="preserve">12: uriToSlideshowMedia</text>
    </g>
    <g style="text-rendering:geometricPrecision; font-size:11; font-family:sans-serif;" transform="translate(407,233)">
      <text x="10" y="11" style="clip-path:url(#clipPath17); stroke:none;" xml:space="preserve">6: getUri(): uriToSlideshowMedia</text>
    </g>
    <g style="text-rendering:geometricPrecision; font-size:11; font-family:sans-serif;" transform="translate(399,333)">
      <text x="10" y="11" style="clip-path:url(#clipPath18); stroke:none;" xml:space="preserve">10: setReferenceToRealData(null)</text>
    </g>
    <g style="text-rendering:geometricPrecision; font-size:11; font-family:sans-serif;" transform="translate(414,292)">
      <text x="10" y="11" style="clip-path:url(#clipPath19); stroke:none;" xml:space="preserve">9: storageKey(): String</text>
    </g>
    <g style="text-rendering:geometricPrecision; font-size:11; font-family:sans-serif;" transform="translate(391,262)">
      <text x="10" y="11" style="clip-path:url(#clipPath20); stroke:none;" xml:space="preserve">8: getReferenceToRealData(): uriToFile</text>
    </g>
    <g style="text-rendering:geometricPrecision; font-size:11; font-family:sans-serif;" transform="translate(666,242)">
      <text x="10" y="11" style="clip-path:url(#clipPath21); stroke:none;" xml:space="preserve">7: write(slideshowMedia)</text>
    </g>
    <g style="text-rendering:geometricPrecision; font-size:11; font-family:sans-serif;" transform="translate(617,352)">
      <text x="10" y="11" style="clip-path:url(#clipPath22); stroke:none;" xml:space="preserve">11: set(uriToSlideshowMedia, slideshowMedia)</text>
    </g>
    <g style="text-rendering:geometricPrecision; font-size:11; font-family:sans-serif;" transform="translate(161,202)">
      <text x="10" y="11" style="clip-path:url(#clipPath16); stroke:none;" xml:space="preserve">5: store(slideshowMedia)</text>
    </g>
    <g style="text-rendering:geometricPrecision; font-size:11; font-family:sans-serif;" transform="translate(65,163)">
      <text x="10" y="11" style="clip-path:url(#clipPath23); stroke:none;" xml:space="preserve">4: setReferenceToRealData("/path/to/slideshow.mov")</text>
    </g>
    <g style="text-rendering:geometricPrecision; font-size:11; font-family:sans-serif;" transform="translate(78,123)">
      <text x="10" y="11" style="clip-path:url(#clipPath24); stroke:none;" xml:space="preserve">3: setNamespace("Santiago::SlideshowGenerator")</text>
    </g>
    <g style="text-rendering:geometricPrecision; font-size:11; font-family:sans-serif;" transform="translate(146,93)">
      <text x="10" y="11" style="clip-path:url(#clipPath25); stroke:none;" xml:space="preserve">2: setName("Slideshow")</text>
    </g>
    <g style="text-rendering:geometricPrecision; font-size:11; font-family:sans-serif;" transform="translate(144,63)">
      <text x="10" y="11" style="clip-path:url(#clipPath26); stroke:none;" xml:space="preserve">1: new(): slideshowMedia</text>
    </g>
  </g>
</svg>
