<?xml version="1.0" encoding="UTF-8"?>

<!DOCTYPE svg PUBLIC '-//W3C//DTD SVG 1.0//EN' 'http://www.w3.org/TR/2001/REC-SVG-20010904/DTD/svg10.dtd'>
<svg style="fill-opacity:1; color-rendering:auto; color-interpolation:auto; text-rendering:auto; stroke:black; stroke-linecap:square; stroke-miterlimit:10; shape-rendering:auto; stroke-opacity:1; fill:black; stroke-dasharray:none; font-weight:normal; stroke-width:1; font-family:&apos;Dialog&apos;; font-style:normal; stroke-linejoin:miter; font-size:12; stroke-dashoffset:0; image-rendering:auto;" xmlns="http://www.w3.org/2000/svg" width="696" xmlns:xlink="http://www.w3.org/1999/xlink" height="306">
  <!--Generated by the Batik Graphics2D SVG Generator-->
  <defs id="genericDefs" />
  <g>
    <defs id="defs1">
      <linearGradient x1="50" gradientUnits="userSpaceOnUse" x2="50" y1="0" y2="300" id="linearGradient1" spreadMethod="reflect">
        <stop style="stop-opacity:1; stop-color:rgb(139,193,205);" offset="0%" />
        <stop style="stop-opacity:1; stop-color:rgb(240,247,249);" offset="100%" />
      </linearGradient>
      <linearGradient x1="50" gradientUnits="userSpaceOnUse" x2="50" y1="0" y2="300" id="linearGradient2" spreadMethod="reflect">
        <stop style="stop-opacity:1; stop-color:rgb(139,193,205);" offset="0%" />
        <stop style="stop-opacity:1; stop-color:rgb(240,247,249);" offset="100%" />
      </linearGradient>
      <linearGradient x1="4" gradientUnits="userSpaceOnUse" x2="4" y1="0" y2="190" id="linearGradient3" spreadMethod="reflect">
        <stop style="stop-opacity:1; stop-color:rgb(139,193,205);" offset="0%" />
        <stop style="stop-opacity:1; stop-color:rgb(240,247,249);" offset="100%" />
      </linearGradient>
      <linearGradient x1="60" gradientUnits="userSpaceOnUse" x2="60" y1="0" y2="300" id="linearGradient4" spreadMethod="reflect">
        <stop style="stop-opacity:1; stop-color:rgb(139,193,205);" offset="0%" />
        <stop style="stop-opacity:1; stop-color:rgb(240,247,249);" offset="100%" />
      </linearGradient>
      <linearGradient x1="4" gradientUnits="userSpaceOnUse" x2="4" y1="0" y2="40" id="linearGradient5" spreadMethod="reflect">
        <stop style="stop-opacity:1; stop-color:rgb(139,193,205);" offset="0%" />
        <stop style="stop-opacity:1; stop-color:rgb(240,247,249);" offset="100%" />
      </linearGradient>
      <linearGradient x1="40" gradientUnits="userSpaceOnUse" x2="40" y1="0" y2="300" id="linearGradient6" spreadMethod="reflect">
        <stop style="stop-opacity:1; stop-color:rgb(139,193,205);" offset="0%" />
        <stop style="stop-opacity:1; stop-color:rgb(240,247,249);" offset="100%" />
      </linearGradient>
      <linearGradient x1="4" gradientUnits="userSpaceOnUse" x2="4" y1="0" y2="12" id="linearGradient7" spreadMethod="reflect">
        <stop style="stop-opacity:1; stop-color:rgb(139,193,205);" offset="0%" />
        <stop style="stop-opacity:1; stop-color:rgb(240,247,249);" offset="100%" />
      </linearGradient>
      <clipPath clipPathUnits="userSpaceOnUse" id="clipPath1">
        <path d="M-3 -3 L107 -3 L107 307 L-3 307 L-3 -3 Z" />
      </clipPath>
      <clipPath clipPathUnits="userSpaceOnUse" id="clipPath2">
        <path d="M-3 -3 L15 -3 L15 197 L-3 197 L-3 -3 Z" />
      </clipPath>
      <clipPath clipPathUnits="userSpaceOnUse" id="clipPath3">
        <path d="M-3 -3 L127 -3 L127 307 L-3 307 L-3 -3 Z" />
      </clipPath>
      <clipPath clipPathUnits="userSpaceOnUse" id="clipPath4">
        <path d="M-3 -3 L15 -3 L15 47 L-3 47 L-3 -3 Z" />
      </clipPath>
      <clipPath clipPathUnits="userSpaceOnUse" id="clipPath5">
        <path d="M-3 -3 L87 -3 L87 307 L-3 307 L-3 -3 Z" />
      </clipPath>
      <clipPath clipPathUnits="userSpaceOnUse" id="clipPath6">
        <path d="M-3 -3 L15 -3 L15 19 L-3 19 L-3 -3 Z" />
      </clipPath>
      <clipPath clipPathUnits="userSpaceOnUse" id="clipPath7">
        <path d="M0 0 L80 0 L80 14 L0 14 L0 0 Z" />
      </clipPath>
      <clipPath clipPathUnits="userSpaceOnUse" id="clipPath8">
        <path d="M0 0 L120 0 L120 14 L0 14 L0 0 Z" />
      </clipPath>
      <clipPath clipPathUnits="userSpaceOnUse" id="clipPath9">
        <path d="M0 0 L97 0 L97 14 L0 14 L0 0 Z" />
      </clipPath>
      <clipPath clipPathUnits="userSpaceOnUse" id="clipPath10">
        <path d="M0 0 L306 0 L306 104 L0 104 L0 0 Z" />
      </clipPath>
      <clipPath clipPathUnits="userSpaceOnUse" id="clipPath11">
        <path d="M0 0 L466 0 L466 104 L0 104 L0 0 Z" />
      </clipPath>
      <clipPath clipPathUnits="userSpaceOnUse" id="clipPath12">
        <path d="M0 0 L100 0 L100 14 L0 14 L0 0 Z" />
      </clipPath>
      <clipPath clipPathUnits="userSpaceOnUse" id="clipPath13">
        <path d="M0 0 L356 0 L356 104 L0 104 L0 0 Z" />
      </clipPath>
      <clipPath clipPathUnits="userSpaceOnUse" id="clipPath14">
        <path d="M0 0 L167 0 L167 14 L0 14 L0 0 Z" />
      </clipPath>
      <clipPath clipPathUnits="userSpaceOnUse" id="clipPath15">
        <path d="M0 0 L146 0 L146 14 L0 14 L0 0 Z" />
      </clipPath>
      <clipPath clipPathUnits="userSpaceOnUse" id="clipPath16">
        <path d="M0 0 L139 0 L139 14 L0 14 L0 0 Z" />
      </clipPath>
      <clipPath clipPathUnits="userSpaceOnUse" id="clipPath17">
        <path d="M0 0 L237 0 L237 14 L0 14 L0 0 Z" />
      </clipPath>
      <clipPath clipPathUnits="userSpaceOnUse" id="clipPath18">
        <path d="M0 0 L174 0 L174 14 L0 14 L0 0 Z" />
      </clipPath>
      <clipPath clipPathUnits="userSpaceOnUse" id="clipPath19">
        <path d="M0 0 L209 0 L209 14 L0 14 L0 0 Z" />
      </clipPath>
    </defs>
    <g style="fill:white; text-rendering:geometricPrecision; stroke:white;">
      <rect x="0" y="0" width="696" style="stroke:none;" height="306" />
    </g>
    <g transform="translate(212,2)" style="font-size:11; fill:url(#linearGradient1); text-rendering:geometricPrecision; font-family:&apos;DejaVu Sans Mono&apos;; stroke:url(#linearGradient1);">
      <rect x="0" y="0" width="99" style="clip-path:url(#clipPath1); stroke:none;" height="35" />
    </g>
    <g transform="translate(212,2)" style="stroke-linecap:butt; font-size:11; text-rendering:geometricPrecision; font-family:&apos;DejaVu Sans Mono&apos;; stroke-linejoin:round; stroke-miterlimit:0;">
      <rect x="0" y="0" width="99" style="clip-path:url(#clipPath1); fill:none;" height="35" />
      <line x1="49" x2="49" y1="35" style="clip-path:url(#clipPath1); fill:none; stroke-linejoin:bevel; stroke-dasharray:8,3;" y2="300" />
    </g>
    <g transform="translate(2,2)" style="font-size:11; fill:url(#linearGradient2); text-rendering:geometricPrecision; font-family:&apos;DejaVu Sans Mono&apos;; stroke:url(#linearGradient2);">
      <circle style="clip-path:url(#clipPath1); stroke:none;" r="5" cx="50" cy="5" />
      <rect x="46" y="49" width="8" style="clip-path:url(#clipPath1); stroke:none;" height="250" />
    </g>
    <g transform="translate(2,2)" style="stroke-linecap:butt; font-size:11; text-rendering:geometricPrecision; font-family:&apos;DejaVu Sans Mono&apos;; stroke-linejoin:round; stroke-miterlimit:0;">
      <circle style="fill:none; clip-path:url(#clipPath1);" r="5" cx="50" cy="5" />
      <rect x="46" y="49" width="8" style="clip-path:url(#clipPath1); fill:none;" height="250" />
      <line x1="50" x2="50" y1="10" style="clip-path:url(#clipPath1); fill:none;" y2="25" />
      <line x1="50" x2="41" y1="25" style="clip-path:url(#clipPath1); fill:none;" y2="36" />
      <line x1="50" x2="59" y1="25" style="clip-path:url(#clipPath1); fill:none;" y2="36" />
      <line x1="41" x2="59" y1="16" style="clip-path:url(#clipPath1); fill:none;" y2="16" />
    </g>
    <g transform="translate(258,92)" style="font-size:11; fill:url(#linearGradient3); text-rendering:geometricPrecision; font-family:&apos;DejaVu Sans Mono&apos;; stroke:url(#linearGradient3);">
      <rect x="0" y="0" width="8" style="clip-path:url(#clipPath2); stroke:none;" height="190" />
    </g>
    <g transform="translate(258,92)" style="stroke-linecap:butt; font-size:11; text-rendering:geometricPrecision; font-family:&apos;DejaVu Sans Mono&apos;; stroke-linejoin:round; stroke-miterlimit:0;">
      <rect x="0" y="0" width="8" style="clip-path:url(#clipPath2); fill:none;" height="190" />
    </g>
    <g transform="translate(572,2)" style="font-size:11; fill:url(#linearGradient4); text-rendering:geometricPrecision; font-family:&apos;DejaVu Sans Mono&apos;; stroke:url(#linearGradient4);">
      <rect x="0" y="0" width="119" style="clip-path:url(#clipPath3); stroke:none;" height="35" />
    </g>
    <g transform="translate(572,2)" style="stroke-linecap:butt; font-size:11; text-rendering:geometricPrecision; font-family:&apos;DejaVu Sans Mono&apos;; stroke-linejoin:round; stroke-miterlimit:0;">
      <rect x="0" y="0" width="119" style="clip-path:url(#clipPath3); fill:none;" height="35" />
      <line x1="59" x2="59" y1="35" style="clip-path:url(#clipPath3); fill:none; stroke-linejoin:bevel; stroke-dasharray:8,3;" y2="300" />
    </g>
    <g transform="translate(628,102)" style="font-size:11; fill:url(#linearGradient5); text-rendering:geometricPrecision; font-family:&apos;DejaVu Sans Mono&apos;; stroke:url(#linearGradient5);">
      <rect x="0" y="0" width="8" style="clip-path:url(#clipPath4); stroke:none;" height="40" />
    </g>
    <g transform="translate(628,102)" style="stroke-linecap:butt; font-size:11; text-rendering:geometricPrecision; font-family:&apos;DejaVu Sans Mono&apos;; stroke-linejoin:round; stroke-miterlimit:0;">
      <rect x="0" y="0" width="8" style="clip-path:url(#clipPath4); fill:none;" height="40" />
    </g>
    <g transform="translate(482,2)" style="font-size:11; fill:url(#linearGradient6); text-rendering:geometricPrecision; font-family:&apos;DejaVu Sans Mono&apos;; stroke:url(#linearGradient6);">
      <rect x="0" y="0" width="79" style="clip-path:url(#clipPath5); stroke:none;" height="35" />
    </g>
    <g transform="translate(482,2)" style="stroke-linecap:butt; font-size:11; text-rendering:geometricPrecision; font-family:&apos;DejaVu Sans Mono&apos;; stroke-linejoin:round; stroke-miterlimit:0;">
      <rect x="0" y="0" width="79" style="clip-path:url(#clipPath5); fill:none;" height="35" />
      <line x1="39" x2="39" y1="35" style="clip-path:url(#clipPath5); fill:none; stroke-linejoin:bevel; stroke-dasharray:8,3;" y2="300" />
    </g>
    <g transform="translate(518,192)" style="font-size:11; fill:url(#linearGradient7); text-rendering:geometricPrecision; font-family:&apos;DejaVu Sans Mono&apos;; stroke:url(#linearGradient7);">
      <rect x="0" y="0" width="8" style="clip-path:url(#clipPath6); stroke:none;" height="12" />
    </g>
    <g transform="translate(518,192)" style="stroke-linecap:butt; font-size:11; text-rendering:geometricPrecision; font-family:&apos;DejaVu Sans Mono&apos;; stroke-linejoin:round; stroke-miterlimit:0;">
      <rect x="0" y="0" width="8" style="clip-path:url(#clipPath6); fill:none;" height="12" />
    </g>
    <g style="text-rendering:geometricPrecision; font-size:11; font-family:&apos;DejaVu Sans Mono&apos;;" transform="translate(482,2)">
      <text x="8" y="11" style="clip-path:url(#clipPath7); stroke:none;" xml:space="preserve">MediaData</text>
    </g>
    <g style="text-rendering:geometricPrecision; font-size:11; font-family:&apos;DejaVu Sans Mono&apos;;" transform="translate(572,2)">
      <text x="7" y="11" style="clip-path:url(#clipPath8); stroke:none;" xml:space="preserve">MemcachedClient</text>
    </g>
    <g style="text-rendering:geometricPrecision; font-size:11; font-family:&apos;DejaVu Sans Mono&apos;;" transform="translate(4,37)">
      <text x="10" y="11" style="clip-path:url(#clipPath9); stroke:none;" xml:space="preserve">CoreService</text>
    </g>
    <g transform="translate(6,42)" style="font-size:11; stroke-linecap:butt; text-rendering:geometricPrecision; font-family:&apos;DejaVu Sans Mono&apos;; stroke-linejoin:round;">
      <line x1="50" x2="252" y1="50" style="clip-path:url(#clipPath10); fill:none;" y2="50" />
      <polygon style="fill:rgb(122,207,245); clip-path:url(#clipPath10); stroke:none;" points=" 252 50 240 44 240 56" />
      <polygon style="fill:none; clip-path:url(#clipPath10);" points=" 252 50 240 44 240 56" />
    </g>
    <g transform="translate(216,52)" style="font-size:11; stroke-linecap:butt; text-rendering:geometricPrecision; font-family:&apos;DejaVu Sans Mono&apos;; stroke-linejoin:round;">
      <line x1="50" x2="412" y1="50" style="clip-path:url(#clipPath11); fill:none;" y2="50" />
      <polygon style="fill:rgb(122,207,245); clip-path:url(#clipPath11); stroke:none;" points=" 412 50 400 44 400 56" />
      <polygon style="fill:none; clip-path:url(#clipPath11);" points=" 412 50 400 44 400 56" />
    </g>
    <g style="text-rendering:geometricPrecision; font-size:11; font-family:&apos;DejaVu Sans Mono&apos;;" transform="translate(212,2)">
      <text x="11" y="11" style="clip-path:url(#clipPath12); stroke:none;" xml:space="preserve">MediaBroker</text>
    </g>
    <g transform="translate(216,142)" style="font-size:11; stroke-linecap:butt; text-rendering:geometricPrecision; font-family:&apos;DejaVu Sans Mono&apos;; stroke-linejoin:round;">
      <line x1="50" x2="302" y1="50" style="clip-path:url(#clipPath13); fill:none;" y2="50" />
      <polygon style="fill:rgb(122,207,245); clip-path:url(#clipPath13); stroke:none;" points=" 302 50 290 44 290 56" />
      <polygon style="fill:none; clip-path:url(#clipPath13);" points=" 302 50 290 44 290 56" />
    </g>
    <g transform="translate(216,82)" style="stroke-linecap:butt; font-size:11; text-rendering:geometricPrecision; stroke-linejoin:round; font-family:&apos;DejaVu Sans Mono&apos;; stroke-dasharray:8,3; stroke-miterlimit:0;">
      <line x1="412" x2="50" y1="50" style="clip-path:url(#clipPath11); fill:none;" y2="50" />
      <line x1="50" x2="62" y1="50" style="clip-path:url(#clipPath11); fill:none; stroke-dasharray:none; stroke-miterlimit:10;" y2="56" />
      <line x1="50" x2="62" y1="50" style="clip-path:url(#clipPath11); fill:none; stroke-dasharray:none; stroke-miterlimit:10;" y2="44" />
    </g>
    <g transform="translate(6,192)" style="font-size:11; stroke-linecap:butt; text-rendering:geometricPrecision; font-family:&apos;DejaVu Sans Mono&apos;; stroke-linejoin:round;">
      <line x1="50" x2="252" y1="50" style="clip-path:url(#clipPath10); fill:none;" y2="50" />
      <polygon style="fill:rgb(122,207,245); clip-path:url(#clipPath10); stroke:none;" points=" 252 50 240 44 240 56" />
      <polygon style="fill:none; clip-path:url(#clipPath10);" points=" 252 50 240 44 240 56" />
    </g>
    <g transform="translate(6,162)" style="stroke-linecap:butt; font-size:11; text-rendering:geometricPrecision; stroke-linejoin:round; font-family:&apos;DejaVu Sans Mono&apos;; stroke-dasharray:8,3; stroke-miterlimit:0;">
      <line x1="252" x2="50" y1="50" style="clip-path:url(#clipPath10); fill:none;" y2="50" />
      <line x1="50" x2="62" y1="50" style="clip-path:url(#clipPath10); fill:none; stroke-dasharray:none; stroke-miterlimit:10;" y2="56" />
      <line x1="50" x2="62" y1="50" style="clip-path:url(#clipPath10); fill:none; stroke-dasharray:none; stroke-miterlimit:10;" y2="44" />
    </g>
    <g transform="translate(6,222)" style="stroke-linecap:butt; font-size:11; text-rendering:geometricPrecision; stroke-linejoin:round; font-family:&apos;DejaVu Sans Mono&apos;; stroke-dasharray:8,3; stroke-miterlimit:0;">
      <line x1="252" x2="50" y1="50" style="clip-path:url(#clipPath10); fill:none;" y2="50" />
      <line x1="50" x2="62" y1="50" style="clip-path:url(#clipPath10); fill:none; stroke-dasharray:none; stroke-miterlimit:10;" y2="56" />
      <line x1="50" x2="62" y1="50" style="clip-path:url(#clipPath10); fill:none; stroke-dasharray:none; stroke-miterlimit:10;" y2="44" />
    </g>
    <g style="text-rendering:geometricPrecision; font-size:11; font-family:&apos;DejaVu Sans Mono&apos;;" transform="translate(73,251)">
      <text x="10" y="11" style="clip-path:url(#clipPath14); stroke:none;" xml:space="preserve">7: referenceToAnyData</text>
    </g>
    <g style="text-rendering:geometricPrecision; font-size:11; font-family:&apos;DejaVu Sans Mono&apos;;" transform="translate(83,223)">
      <text x="10" y="11" style="clip-path:url(#clipPath15); stroke:none;" xml:space="preserve">6: getPlayableData</text>
    </g>
    <g style="text-rendering:geometricPrecision; font-size:11; font-family:&apos;DejaVu Sans Mono&apos;;" transform="translate(87,191)">
      <text x="10" y="11" style="clip-path:url(#clipPath16); stroke:none;" xml:space="preserve">5: slideshowMedia</text>
    </g>
    <g style="text-rendering:geometricPrecision; font-size:11; font-family:&apos;DejaVu Sans Mono&apos;;" transform="translate(273,172)">
      <text x="10" y="11" style="clip-path:url(#clipPath17); stroke:none;" xml:space="preserve">4: setStore(storeOfMediaBroker)</text>
    </g>
    <g style="text-rendering:geometricPrecision; font-size:11; font-family:&apos;DejaVu Sans Mono&apos;;" transform="translate(376,111)">
      <text x="10" y="11" style="clip-path:url(#clipPath16); stroke:none;" xml:space="preserve">3: slideshowMedia</text>
    </g>
    <g style="text-rendering:geometricPrecision; font-size:11; font-family:&apos;DejaVu Sans Mono&apos;;" transform="translate(354,83)">
      <text x="10" y="11" style="clip-path:url(#clipPath18); stroke:none;" xml:space="preserve">2: get(uriToSlideshow)</text>
    </g>
    <g style="text-rendering:geometricPrecision; font-size:11; font-family:&apos;DejaVu Sans Mono&apos;;" transform="translate(51,73)">
      <text x="10" y="11" style="clip-path:url(#clipPath19); stroke:none;" xml:space="preserve">1: retrieve(uriToSlideshow)</text>
    </g>
  </g>
</svg>
